<?xml version="1.0" encoding="UTF-8"?>
<svg xmlns="http://www.w3.org/2000/svg" width="525" height="525">
  <metadata id="metadata7">image/svg+xml</metadata>
  <g>
    <title>Parking allowed sometimes</title>
    <rect fill="none" id="canvas_background" height="527" width="527" y="-1" x="-1"></rect>
  </g>
  <g>
    <title>Layer 1</title>
    <path fill="#047153" fill-rule="nonzero" stroke-width="0.873544" marker-start="none" marker-mid="none" marker-end="none" stroke-miterlimit="4" stroke-dashoffset="0" id="rect3651" d="m262.5,0c145.425,0 262.5,117.075 262.5,262.5c0,145.425 -117.075,262.5 -262.5,262.5c-145.425,0 -262.5,-117.075 -262.5,-262.5c0,-145.425 117.075,-262.5 262.5,-262.5z"></path>
    <rect fill="white" fill-rule="nonzero" stroke-width="0.873544" stroke-miterlimit="4" stroke-dashoffset="0" ry="212.5" rx="212.5" y="50" x="50" height="425" width="425" id="rect4540"></rect>
    <path id="text1885" d="m410.2756,205.79725c-0.00029,17.26629 -4.16695,33.26534 -12.49999,47.99721c-8.33359,14.73219 -19.64373,25.96741 -33.93048,33.70569c-4.46889,2.37977 -8.71048,4.3893 -12.72478,6.0286c-4.01475,1.63953 -8.1814,2.90429 -12.49998,3.79427c-4.31901,0.89022 -9.08285,1.55779 -14.29154,2.00273c-5.20909,0.44516 -11.23314,0.66768 -18.07219,0.66757l-78.56939,0l0,112.50668l-58.93726,0l0,-299.99965l140.62654,0c12.49752,0.0003 22.61557,0.89267 30.35419,2.67711c7.73819,1.78504 15.77632,5.05705 24.11441,9.81607c14.28675,8.33814 25.59689,19.65056 33.93048,33.93729c8.33304,14.28723 12.4997,29.90936 12.49999,46.86643l0,0zm-58.93726,0c-0.00023,-9.5184 -3.49704,-17.47705 -10.49046,-23.876c-6.99384,-6.39848 -16.14459,-9.59784 -27.45228,-9.59808l-85.70835,0l0,67.86096l85.70835,0c11.60742,0.00017 20.8331,-3.12653 27.67708,-9.3801c6.84355,-6.25321 10.26543,-14.5888 10.26566,-25.00678l0,0z"></path>
  </g>
</svg>
